HIERARCHY
ROOT mixamorig:Hips
{
	OFFSET 0.000000 99.791901 0.000000
	CHANNELS 6 Xposition Yposition Zposition Xrotation Yrotation Zrotation
	JOINT mixamorig:Spine
	{
		OFFSET 0.000038 9.923500 -1.227300
		CHANNELS 6 Xposition Yposition Zposition Xrotation Yrotation Zrotation
		JOINT mixamorig:Spine1
		{
			OFFSET -0.001154 11.645462 -1.422353
			CHANNELS 3 Xrotation Yrotation Zrotation
			JOINT mixamorig:Spine2
			{
				OFFSET -0.001065 13.360161 -1.626458
				CHANNELS 3 Xrotation Yrotation Zrotation
				JOINT mixamorig:Neck
				{
					OFFSET -0.001308 15.032516 0.792905
					CHANNELS 6 Xposition Yposition Zposition Xrotation Yrotation Zrotation
					JOINT mixamorig:Head
					{
						OFFSET -0.000902 10.321808 3.142400
						CHANNELS 6 Xposition Yposition Zposition Xrotation Yrotation Zrotation
						JOINT mixamorig:HeadTop_End
						{
							OFFSET -0.001416 18.474701 6.636400
							CHANNELS 6 Xposition Yposition Zposition Xrotation Yrotation Zrotation
							End Site
							{
								OFFSET -0.001707 19.630493 0.000000
							}
						}
					}
				}
				JOINT mixamorig:LeftShoulder
				{
					OFFSET 6.105007 9.110962 0.705601
					CHANNELS 6 Xposition Yposition Zposition Xrotation Yrotation Zrotation
					JOINT mixamorig:LeftArm
					{
						OFFSET 12.655048 -0.266434 -2.600898
						CHANNELS 3 Xrotation Yrotation Zrotation
						JOINT mixamorig:LeftForeArm
						{
							OFFSET 27.404696 0.000000 0.000000
							CHANNELS 3 Xrotation Yrotation Zrotation
							JOINT mixamorig:LeftHand
							{
								OFFSET 27.614513 0.000000 0.000000
								CHANNELS 3 Xrotation Yrotation Zrotation
								JOINT mixamorig:LeftHandThumb1
								{
									OFFSET 3.788795 -2.167099 3.003002
									CHANNELS 6 Xposition Yposition Zposition Xrotation Yrotation Zrotation
									JOINT mixamorig:LeftHandThumb2
									{
										OFFSET 3.675461 -2.122025 2.122029
										CHANNELS 6 Xposition Yposition Zposition Xrotation Yrotation Zrotation
										JOINT mixamorig:LeftHandThumb3
										{
											OFFSET 3.394363 -1.959732 1.959735
											CHANNELS 6 Xposition Yposition Zposition Xrotation Yrotation Zrotation
											JOINT mixamorig:LeftHandThumb4
											{
												OFFSET 2.679405 -1.546951 1.546957
												CHANNELS 6 Xposition Yposition Zposition Xrotation Yrotation Zrotation
												End Site
												{
													OFFSET 2.400513 -1.530563 1.964770
												}
											}
										}
									}
								}
								JOINT mixamorig:LeftHandIndex1
								{
									OFFSET 12.266594 -0.231796 2.822001
									CHANNELS 6 Xposition Yposition Zposition Xrotation Yrotation Zrotation
									JOINT mixamorig:LeftHandIndex2
									{
										OFFSET 3.891998 0.000000 0.000000
										CHANNELS 3 Xrotation Yrotation Zrotation
										JOINT mixamorig:LeftHandIndex3
										{
											OFFSET 3.415207 0.000000 0.000000
											CHANNELS 3 Xrotation Yrotation Zrotation
											JOINT mixamorig:LeftHandIndex4
											{
												OFFSET 3.077995 0.000000 0.000000
												CHANNELS 3 Xrotation Yrotation Zrotation
												End Site
												{
													OFFSET 3.078003 0.000000 0.000140
												}
											}
										}
									}
								}
								JOINT mixamorig:LeftHandMiddle1
								{
									OFFSET 12.775497 0.000000 0.000000
									CHANNELS 6 Xposition Yposition Zposition Xrotation Yrotation Zrotation
									JOINT mixamorig:LeftHandMiddle2
									{
										OFFSET 3.613998 0.000000 0.000000
										CHANNELS 3 Xrotation Yrotation Zrotation
										JOINT mixamorig:LeftHandMiddle3
										{
											OFFSET 3.459793 0.000000 0.000000
											CHANNELS 3 Xrotation Yrotation Zrotation
											JOINT mixamorig:LeftHandMiddle4
											{
												OFFSET 3.680214 0.000000 0.000000
												CHANNELS 3 Xrotation Yrotation Zrotation
												End Site
												{
													OFFSET 3.680199 0.000031 -0.004817
												}
											}
										}
									}
								}
								JOINT mixamorig:LeftHandRing1
								{
									OFFSET 12.146996 0.009995 -2.216599
									CHANNELS 6 Xposition Yposition Zposition Xrotation Yrotation Zrotation
									JOINT mixamorig:LeftHandRing2
									{
										OFFSET 3.601196 0.000000 0.000000
										CHANNELS 3 Xrotation Yrotation Zrotation
										JOINT mixamorig:LeftHandRing3
										{
											OFFSET 3.307304 0.000000 0.000000
											CHANNELS 3 Xrotation Yrotation Zrotation
											JOINT mixamorig:LeftHandRing4
											{
												OFFSET 3.660095 0.000000 0.000000
												CHANNELS 3 Xrotation Yrotation Zrotation
												End Site
												{
													OFFSET 3.660095 -0.000107 0.005639
												}
											}
										}
									}
								}
								JOINT mixamorig:LeftHandPinky1
								{
									OFFSET 10.908195 -0.226105 -4.725800
									CHANNELS 6 Xposition Yposition Zposition Xrotation Yrotation Zrotation
									JOINT mixamorig:LeftHandPinky2
									{
										OFFSET 4.136703 0.000000 0.000000
										CHANNELS 3 Xrotation Yrotation Zrotation
										JOINT mixamorig:LeftHandPinky3
										{
											OFFSET 2.594803 0.000000 0.000000
											CHANNELS 3 Xrotation Yrotation Zrotation
											JOINT mixamorig:LeftHandPinky4
											{
												OFFSET 2.923904 0.000000 0.000000
												CHANNELS 3 Xrotation Yrotation Zrotation
												End Site
												{
													OFFSET 2.923897 0.000015 -0.003363
												}
											}
										}
									}
								}
							}
						}
					}
				}
				JOINT mixamorig:RightShoulder
				{
					OFFSET -6.106493 9.110001 0.705582
					CHANNELS 6 Xposition Yposition Zposition Xrotation Yrotation Zrotation
					JOINT mixamorig:RightArm
					{
						OFFSET -12.655064 -0.265533 -2.600914
						CHANNELS 3 Xrotation Yrotation Zrotation
						JOINT mixamorig:RightForeArm
						{
							OFFSET -27.404697 0.000000 -0.000000
							CHANNELS 3 Xrotation Yrotation Zrotation
							JOINT mixamorig:RightHand
							{
								OFFSET -27.614510 0.000000 -0.000000
								CHANNELS 3 Xrotation Yrotation Zrotation
								JOINT mixamorig:RightHandThumb1
								{
									OFFSET -3.788803 -2.167099 3.003001
									CHANNELS 6 Xposition Yposition Zposition Xrotation Yrotation Zrotation
									JOINT mixamorig:RightHandThumb2
									{
										OFFSET -3.675461 -2.122025 2.122028
										CHANNELS 6 Xposition Yposition Zposition Xrotation Yrotation Zrotation
										JOINT mixamorig:RightHandThumb3
										{
											OFFSET -3.394363 -1.959732 1.959735
											CHANNELS 6 Xposition Yposition Zposition Xrotation Yrotation Zrotation
											JOINT mixamorig:RightHandThumb4
											{
												OFFSET -2.679405 -1.546951 1.546957
												CHANNELS 6 Xposition Yposition Zposition Xrotation Yrotation Zrotation
												End Site
												{
													OFFSET -2.398972 -1.531448 1.965965
												}
											}
										}
									}
								}
								JOINT mixamorig:RightHandIndex1
								{
									OFFSET -12.266602 -0.231796 2.822000
									CHANNELS 6 Xposition Yposition Zposition Xrotation Yrotation Zrotation
									JOINT mixamorig:RightHandIndex2
									{
										OFFSET -3.891998 0.000000 0.000000
										CHANNELS 3 Xrotation Yrotation Zrotation
										JOINT mixamorig:RightHandIndex3
										{
											OFFSET -3.415207 0.000000 0.000000
											CHANNELS 3 Xrotation Yrotation Zrotation
											JOINT mixamorig:RightHandIndex4
											{
												OFFSET -3.077995 0.000000 0.000000
												CHANNELS 3 Xrotation Yrotation Zrotation
												End Site
												{
													OFFSET -3.077995 0.000504 -0.008460
												}
											}
										}
									}
								}
								JOINT mixamorig:RightHandMiddle1
								{
									OFFSET -12.775505 0.000000 -0.000000
									CHANNELS 6 Xposition Yposition Zposition Xrotation Yrotation Zrotation
									JOINT mixamorig:RightHandMiddle2
									{
										OFFSET -3.613998 0.000000 0.000000
										CHANNELS 3 Xrotation Yrotation Zrotation
										JOINT mixamorig:RightHandMiddle3
										{
											OFFSET -3.459793 0.000000 0.000000
											CHANNELS 3 Xrotation Yrotation Zrotation
											JOINT mixamorig:RightHandMiddle4
											{
												OFFSET -3.680214 0.000000 0.000000
												CHANNELS 3 Xrotation Yrotation Zrotation
												End Site
												{
													OFFSET -3.680176 0.000290 0.012574
												}
											}
										}
									}
								}
								JOINT mixamorig:RightHandRing1
								{
									OFFSET -12.147003 0.009995 -2.216600
									CHANNELS 6 Xposition Yposition Zposition Xrotation Yrotation Zrotation
									JOINT mixamorig:RightHandRing2
									{
										OFFSET -3.601196 0.000000 0.000000
										CHANNELS 3 Xrotation Yrotation Zrotation
										JOINT mixamorig:RightHandRing3
										{
											OFFSET -3.307304 0.000000 0.000000
											CHANNELS 3 Xrotation Yrotation Zrotation
											JOINT mixamorig:RightHandRing4
											{
												OFFSET -3.660103 0.000000 0.000000
												CHANNELS 3 Xrotation Yrotation Zrotation
												End Site
												{
													OFFSET -3.660103 0.000427 0.002204
												}
											}
										}
									}
								}
								JOINT mixamorig:RightHandPinky1
								{
									OFFSET -10.908203 -0.226105 -4.725801
									CHANNELS 6 Xposition Yposition Zposition Xrotation Yrotation Zrotation
									JOINT mixamorig:RightHandPinky2
									{
										OFFSET -4.136703 0.000000 0.000000
										CHANNELS 3 Xrotation Yrotation Zrotation
										JOINT mixamorig:RightHandPinky3
										{
											OFFSET -2.594803 0.000000 0.000000
											CHANNELS 3 Xrotation Yrotation Zrotation
											JOINT mixamorig:RightHandPinky4
											{
												OFFSET -2.923904 0.000000 0.000000
												CHANNELS 3 Xrotation Yrotation Zrotation
												End Site
												{
													OFFSET -2.923866 0.000595 -0.012896
												}
											}
										}
									}
								}
							}
						}
					}
				}
			}
		}
	}
	JOINT mixamorig:LeftUpLeg
	{
		OFFSET 9.124481 -6.656403 -0.055368
		CHANNELS 6 Xposition Yposition Zposition Xrotation Yrotation Zrotation
		JOINT mixamorig:LeftLeg
		{
			OFFSET 0.244688 -40.595383 -0.515629
			CHANNELS 3 Xrotation Yrotation Zrotation
			JOINT mixamorig:LeftFoot
			{
				OFFSET -0.244684 -42.047905 -2.059130
				CHANNELS 3 Xrotation Yrotation Zrotation
				JOINT mixamorig:LeftToeBase
				{
					OFFSET 0.373535 -7.208565 13.966596
					CHANNELS 3 Xrotation Yrotation Zrotation
					JOINT mixamorig:LeftToe_End
					{
						OFFSET -0.142057 -0.175231 9.997458
						CHANNELS 3 Xrotation Yrotation Zrotation
						End Site
						{
							OFFSET -0.142057 -0.175231 9.997458
						}
					}
				}
			}
		}
	}
	JOINT mixamorig:RightUpLeg
	{
		OFFSET -9.124419 -6.656395 -0.055432
		CHANNELS 6 Xposition Yposition Zposition Xrotation Yrotation Zrotation
		JOINT mixamorig:RightLeg
		{
			OFFSET -0.244683 -40.595413 -0.514284
			CHANNELS 3 Xrotation Yrotation Zrotation
			JOINT mixamorig:RightFoot
			{
				OFFSET 0.244687 -42.047836 -2.060526
				CHANNELS 3 Xrotation Yrotation Zrotation
				JOINT mixamorig:RightToeBase
				{
					OFFSET -0.373540 -7.208565 13.966594
					CHANNELS 3 Xrotation Yrotation Zrotation
					JOINT mixamorig:RightToe_End
					{
						OFFSET 0.141792 -0.175015 9.997463
						CHANNELS 3 Xrotation Yrotation Zrotation
						End Site
						{
							OFFSET 0.141792 -0.175015 9.997463
						}
					}
				}
			}
		}
	}
}
MOTION
Frames: 4
Frame Time: 0.033333
0.514765 92.869751 -1.141290 -6.247113 -43.157722 -4.155512 0.000038 9.923502 -1.227300 5.867344 4.565377 -1.220643 11.908065 9.037209 -3.091847 11.908064 9.037205 -3.091848 -0.001308 15.032542 0.792908 -4.292860 -1.279496 0.197871 -0.000902 10.321824 3.142396 -5.871690 20.519374 -0.741349 -0.001416 18.474716 6.636396 0.000000 0.000000 -0.000000 6.105003 9.110950 0.705607 1.374573 -0.766452 -7.772644 -14.187481 2.484521 -63.211400 9.867536 -47.534999 5.934968 16.141716 0.775851 17.112721 3.788806 -2.167090 3.002998 10.301874 6.154176 -6.178091 3.675473 -2.121997 2.122029 -0.046337 0.104467 0.566132 3.394353 -1.959746 1.959734 -0.000005 -0.000002 0.000008 2.679414 -1.546938 1.546961 -0.000001 -0.000005 0.000003 12.266606 -0.231802 2.821994 -1.135119 -6.874665 -4.857761 0.031218 0.800636 -16.452650 -0.000003 -0.000001 0.000002 -0.000001 -0.000000 -0.000003 12.775500 0.000008 -0.000005 1.959009 9.680086 -14.734683 -0.454895 -1.564513 -21.870097 -0.000004 0.000002 0.000002 -0.000001 0.000002 -0.000000 12.147007 0.010005 -2.216610 2.629296 14.835314 -31.554057 -0.577352 -2.709378 -31.962109 0.000003 -0.000004 -0.000001 0.000001 -0.000000 -0.000001 10.908201 -0.226075 -4.725805 4.159829 18.405111 -35.027857 -0.708950 -5.786996 -39.337802 0.000000 0.000000 -0.000001 -0.000000 -0.000002 -0.000003 -6.106493 9.109990 0.705583 1.403719 9.516725 9.767196 1.382770 -24.290267 60.589590 -6.607554 41.808199 8.189124 6.256706 11.038171 11.111385 -3.788794 -2.167115 3.003006 -8.972129 -5.097666 -0.459970 -3.675440 -2.122036 2.122026 7.941957 -19.109527 -2.869257 -3.394361 -1.959723 1.959731 0.000005 0.000003 -0.000017 -2.679404 -1.546934 1.546956 0.000001 -0.000001 -0.000000 -12.266612 -0.231786 2.821999 -1.146422 -0.935235 4.661372 0.152483 -1.125743 16.816633 -0.000001 -0.000002 0.000000 -0.000001 -0.000001 0.000001 -12.775517 0.000002 -0.000000 -0.642687 -2.979536 12.802057 -0.659782 1.811943 30.560008 -0.000001 -0.000001 0.000001 -0.000003 -0.000000 0.000001 -12.147017 0.010012 -2.216607 2.435628 -7.443119 21.831977 -0.988666 3.761316 37.392513 -0.000001 -0.000004 0.000005 0.000000 -0.000002 -0.000000 -10.908223 -0.226084 -4.725806 3.488091 -10.067524 24.349904 -1.458214 7.864825 41.007732 -0.000005 0.000012 -0.000010 -0.000001 -0.000002 -0.000003 9.124482 -6.656415 -0.055367 -26.917810 5.863965 13.728776 34.745869 -14.022964 -0.202997 -5.112903 0.744587 -7.675544 -2.176545 -3.214245 1.021037 0.000000 -0.000000 -0.000000 -9.124422 -6.656397 -0.055431 -5.784887 -13.566976 -15.411355 34.326383 -8.824303 -0.441146 -20.840389 -3.983863 16.532061 -1.739171 -0.347868 0.325176 -0.000000 0.000002 -0.000000 
0.515578 92.874016 -1.123373 -6.247405 -43.166915 -4.158217 0.000039 9.923489 -1.227301 5.861339 4.567120 -1.219477 11.896050 9.040981 -3.089704 11.896052 9.040991 -3.089705 -0.001308 15.032524 0.792899 -4.211348 -1.284867 0.196947 -0.000903 10.321816 3.142393 -5.803830 20.518771 -0.733984 -0.001417 18.474701 6.636400 -0.000000 0.000000 -0.000000 6.105008 9.110952 0.705598 1.380343 -0.737300 -7.721151 -14.176572 2.472043 -63.253965 9.890367 -47.584743 5.942738 16.139633 0.792947 17.327466 3.788794 -2.167084 3.002999 10.326619 6.116940 -6.164238 3.675465 -2.122003 2.122025 -0.079228 0.083973 0.589902 3.394357 -1.959757 1.959734 -0.000000 -0.000004 0.000003 2.679411 -1.546938 1.546954 -0.000000 -0.000003 0.000004 12.266592 -0.231789 2.821997 -1.128914 -6.883314 -4.842853 0.029459 0.795692 -16.495556 -0.000004 -0.000005 0.000005 0.000001 0.000001 -0.000001 12.775506 0.000007 -0.000003 1.951734 9.664045 -14.744336 -0.456430 -1.567381 -21.898944 -0.000006 0.000002 0.000001 -0.000002 0.000001 -0.000000 12.147017 0.010002 -2.216611 2.615444 14.814219 -31.573352 -0.578064 -2.709955 -31.975114 0.000000 -0.000002 -0.000001 -0.000005 -0.000001 -0.000002 10.908190 -0.226092 -4.725804 4.143114 18.390932 -35.035718 -0.709050 -5.787479 -39.363599 -0.000002 0.000002 -0.000001 -0.000004 -0.000003 0.000003 -6.106493 9.109977 0.705577 1.414392 9.471147 9.712894 1.412064 -24.285747 60.626979 -6.585315 41.843142 8.251663 6.177717 10.783855 10.975280 -3.788809 -2.167108 3.003001 -8.941408 -5.093282 -0.449289 -3.675455 -2.122030 2.122030 7.938619 -19.166071 -2.892957 -3.394373 -1.959717 1.959732 0.000007 0.000004 -0.000012 -2.679403 -1.546955 1.546951 0.000003 0.000001 -0.000004 -12.266603 -0.231787 2.821996 -1.147063 -0.935403 4.670497 0.148133 -1.121450 16.869541 -0.000000 -0.000001 -0.000001 -0.000001 -0.000000 -0.000000 -12.775517 -0.000006 -0.000002 -0.643862 -2.977435 12.821552 -0.659210 1.809610 30.531168 -0.000001 0.000001 0.000002 -0.000001 0.000002 0.000001 -12.147024 0.010008 -2.216606 2.436671 -7.448192 21.807402 -0.987758 3.760565 37.379665 -0.000001 -0.000008 0.000004 -0.000001 0.000000 -0.000001 -10.908220 -0.226081 -4.725804 3.488627 -10.068316 24.352768 -1.457192 7.861374 40.954009 -0.000003 0.000010 -0.000011 0.000001 -0.000001 -0.000004 9.124481 -6.656416 -0.055364 -26.910121 5.875249 13.731481 34.748796 -14.023458 -0.210475 -5.123932 0.743786 -7.661714 -2.179772 -3.221937 1.018577 -0.000000 0.000001 -0.000000 -9.124415 -6.656407 -0.055431 -5.763797 -13.575564 -15.421734 34.288550 -8.806301 -0.433051 -20.825423 -3.981463 16.531833 -1.743594 -0.352799 0.329903 0.000000 -0.000001 -0.000000 
0.514852 92.884117 -1.095658 -6.252517 -43.173038 -4.166748 0.000038 9.923498 -1.227300 5.850272 4.566458 -1.216230 11.873635 9.040373 -3.083148 11.873641 9.040382 -3.083151 -0.001308 15.032529 0.792906 -4.099743 -1.286351 0.211874 -0.000901 10.321788 3.142401 -5.692408 20.528789 -0.677915 -0.001415 18.474686 6.636401 0.000000 0.000000 0.000000 6.105004 9.110987 0.705597 1.390905 -0.675757 -7.624931 -14.143560 2.469744 -63.332458 9.932559 -47.639268 5.952229 16.143661 0.809282 17.523537 3.788797 -2.167102 3.003001 10.346564 6.104005 -6.149807 3.675482 -2.122005 2.122028 -0.098859 0.067210 0.605193 3.394354 -1.959743 1.959741 -0.000005 0.000001 0.000001 2.679406 -1.546938 1.546950 -0.000001 -0.000003 0.000003 12.266594 -0.231782 2.822000 -1.128674 -6.894336 -4.863157 0.026366 0.787455 -16.567669 -0.000002 -0.000006 0.000003 -0.000000 -0.000001 0.000000 12.775495 0.000005 0.000002 1.940291 9.627900 -14.772125 -0.459293 -1.572370 -21.949653 -0.000004 0.000002 0.000000 -0.000002 -0.000001 0.000001 12.147017 0.010006 -2.216603 2.594117 14.776967 -31.614459 -0.579256 -2.711338 -32.002858 0.000001 -0.000003 -0.000002 -0.000001 0.000000 -0.000001 10.908197 -0.226094 -4.725802 4.117075 18.357957 -35.060382 -0.709253 -5.788369 -39.407063 0.000001 0.000002 -0.000002 0.000005 0.000003 -0.000000 -6.106493 9.110023 0.705578 1.431310 9.397014 9.627183 1.444658 -24.279475 60.653364 -6.535976 41.885940 8.347136 6.054312 10.492839 10.799417 -3.788806 -2.167104 3.003001 -8.907547 -5.131003 -0.456288 -3.675470 -2.122022 2.122035 7.958582 -19.244729 -2.909915 -3.394373 -1.959720 1.959733 0.000005 0.000004 -0.000015 -2.679403 -1.546936 1.546962 0.000003 -0.000001 -0.000004 -12.266603 -0.231786 2.821996 -1.146298 -0.930989 4.649164 0.146366 -1.119718 16.890766 -0.000001 -0.000001 0.000001 -0.000001 0.000001 0.000001 -12.775517 -0.000006 -0.000004 -0.642905 -2.979523 12.808923 -0.656869 1.805016 30.472045 -0.000001 0.000001 0.000002 -0.000001 0.000000 0.000003 -12.147018 0.010018 -2.216605 2.437706 -7.459482 21.744524 -0.986434 3.760133 37.369584 -0.000001 -0.000007 0.000008 -0.000001 -0.000002 -0.000000 -10.908213 -0.226084 -4.725806 3.491428 -10.072041 24.367846 -1.455384 7.864830 40.984748 -0.000003 0.000014 -0.000013 -0.000001 -0.000001 -0.000000 9.124483 -6.656409 -0.055366 -26.886727 5.891440 13.732524 34.739292 -14.027701 -0.218092 -5.135933 0.742629 -7.643278 -2.182711 -3.228495 1.019657 0.000000 0.000000 0.000000 -9.124421 -6.656397 -0.055433 -5.711714 -13.585455 -15.422405 34.210215 -8.798700 -0.430394 -20.793671 -3.978751 16.539013 -1.749326 -0.360965 0.337814 0.000000 -0.000001 0.000000 
0.513223 92.899200 -1.060628 -6.259981 -43.185452 -4.177973 0.000038 9.923504 -1.227301 5.835090 4.564862 -1.212011 11.842874 9.038243 -3.074449 11.842871 9.038238 -3.074449 -0.001307 15.032524 0.792905 -3.970429 -1.284053 0.234379 -0.000904 10.321814 3.142403 -5.551722 20.544716 -0.588364 -0.001415 18.474716 6.636395 -0.000001 -0.000000 -0.000000 6.105004 9.110952 0.705601 1.406301 -0.581120 -7.491983 -14.091536 2.472780 -63.432909 9.994255 -47.704497 5.964007 16.152274 0.825973 17.687144 3.788805 -2.167096 3.003005 10.331686 6.117863 -6.124723 3.675472 -2.122006 2.122030 -0.097336 0.075960 0.602762 3.394350 -1.959747 1.959743 -0.000005 -0.000004 0.000003 2.679399 -1.546944 1.546954 -0.000003 -0.000001 0.000003 12.266593 -0.231796 2.822006 -1.128069 -6.899426 -4.889214 0.023174 0.777776 -16.651416 -0.000004 -0.000003 0.000002 -0.000003 -0.000000 -0.000001 12.775503 0.000008 0.000006 1.924656 9.575959 -14.809865 -0.461320 -1.577309 -21.998503 -0.000005 0.000001 -0.000000 0.000000 -0.000002 0.000002 12.147023 0.010006 -2.216606 2.562937 14.729400 -31.654297 -0.580915 -2.713696 -32.048941 0.000004 -0.000003 -0.000001 -0.000001 -0.000000 -0.000001 10.908215 -0.226104 -4.725798 4.080359 18.305590 -35.092477 -0.709939 -5.789229 -39.457050 -0.000002 -0.000000 -0.000003 0.000000 0.000003 -0.000000 -6.106493 9.110002 0.705580 1.452216 9.306773 9.507871 1.485924 -24.267201 60.675166 -6.449372 41.932789 8.463443 5.907591 10.176685 10.605642 -3.788786 -2.167096 3.003002 -8.945073 -5.252186 -0.523578 -3.675451 -2.122027 2.122025 8.035309 -19.326531 -2.865870 -3.394381 -1.959706 1.959727 0.000004 0.000003 -0.000012 -2.679396 -1.546952 1.546953 0.000006 -0.000000 -0.000001 -12.266605 -0.231788 2.821998 -1.142880 -0.927058 4.593966 0.149373 -1.122705 16.855233 -0.000001 0.000000 0.000000 -0.000000 0.000002 0.000000 -12.775500 -0.000021 -0.000002 -0.640242 -2.985949 12.785266 -0.653464 1.799073 30.396415 0.000000 0.000001 0.000000 0.000001 0.000002 -0.000003 -12.147014 0.010013 -2.216603 2.439410 -7.468711 21.688882 -0.984622 3.758878 37.350589 -0.000000 -0.000007 0.000003 0.000000 -0.000002 0.000000 -10.908229 -0.226083 -4.725805 3.491947 -10.072263 24.370935 -1.452614 7.870411 41.043474 -0.000004 0.000010 -0.000012 0.000000 -0.000003 -0.000002 9.124482 -6.656414 -0.055367 -26.848900 5.908547 13.728475 34.719474 -14.021521 -0.220862 -5.148533 0.741618 -7.627317 -2.182641 -3.229361 1.020661 -0.000000 -0.000002 0.000000 -9.124421 -6.656401 -0.055432 -5.640376 -13.592256 -15.415011 34.100286 -8.795864 -0.436977 -20.747519 -3.976019 16.553788 -1.750814 -0.362267 0.339118 0.000000 -0.000002 -0.000000 
